<mxfile host="app.diagrams.net" modified="2021-11-02T08:37:03.228Z" agent="5.0 (Macintosh; Intel Mac OS X 10_15_7) AppleWebKit/537.36 (KHTML, like Gecko) Chrome/95.0.4638.69 Safari/537.36" etag="H6udE-lequ_DDIpFbueQ" version="15.3.7" type="github" pages="2">
  <diagram id="xKQcsoYSkwLZ2shHraXC" name="第 1 页">
    <mxGraphModel dx="1426" dy="684" grid="1" gridSize="10" guides="1" tooltips="1" connect="1" arrows="1" fold="1" page="1" pageScale="1" pageWidth="600" pageHeight="400" math="0" shadow="0">
      <root>
        <mxCell id="0" />
        <mxCell id="1" parent="0" />
        <mxCell id="dWWnSljMcthPzOE1nn3G-1" value="" style="ellipse;whiteSpace=wrap;html=1;aspect=fixed;" vertex="1" parent="1">
          <mxGeometry x="190" y="70" width="250" height="250" as="geometry" />
        </mxCell>
        <mxCell id="dWWnSljMcthPzOE1nn3G-2" value="" style="rounded=0;whiteSpace=wrap;html=1;" vertex="1" parent="1">
          <mxGeometry x="440" y="190" width="160" height="20" as="geometry" />
        </mxCell>
        <mxCell id="dWWnSljMcthPzOE1nn3G-3" value="" style="rounded=0;whiteSpace=wrap;html=1;" vertex="1" parent="1">
          <mxGeometry y="190" width="190" height="20" as="geometry" />
        </mxCell>
        <mxCell id="dWWnSljMcthPzOE1nn3G-4" value="7" style="ellipse;whiteSpace=wrap;html=1;aspect=fixed;" vertex="1" parent="1">
          <mxGeometry x="235" y="115" width="40" height="40" as="geometry" />
        </mxCell>
        <mxCell id="dWWnSljMcthPzOE1nn3G-5" value="5" style="ellipse;whiteSpace=wrap;html=1;aspect=fixed;" vertex="1" parent="1">
          <mxGeometry x="295" y="115" width="40" height="40" as="geometry" />
        </mxCell>
        <mxCell id="dWWnSljMcthPzOE1nn3G-6" value="2" style="ellipse;whiteSpace=wrap;html=1;aspect=fixed;" vertex="1" parent="1">
          <mxGeometry x="355" y="115" width="40" height="40" as="geometry" />
        </mxCell>
        <mxCell id="dWWnSljMcthPzOE1nn3G-7" value="8" style="ellipse;whiteSpace=wrap;html=1;aspect=fixed;" vertex="1" parent="1">
          <mxGeometry x="235" y="175" width="40" height="40" as="geometry" />
        </mxCell>
        <mxCell id="dWWnSljMcthPzOE1nn3G-8" value="1" style="ellipse;whiteSpace=wrap;html=1;aspect=fixed;" vertex="1" parent="1">
          <mxGeometry x="295" y="175" width="40" height="40" as="geometry" />
        </mxCell>
        <mxCell id="dWWnSljMcthPzOE1nn3G-9" value="3" style="ellipse;whiteSpace=wrap;html=1;aspect=fixed;" vertex="1" parent="1">
          <mxGeometry x="355" y="175" width="40" height="40" as="geometry" />
        </mxCell>
        <mxCell id="dWWnSljMcthPzOE1nn3G-10" value="4" style="ellipse;whiteSpace=wrap;html=1;aspect=fixed;" vertex="1" parent="1">
          <mxGeometry x="235" y="235" width="40" height="40" as="geometry" />
        </mxCell>
        <mxCell id="dWWnSljMcthPzOE1nn3G-11" value="6" style="ellipse;whiteSpace=wrap;html=1;aspect=fixed;" vertex="1" parent="1">
          <mxGeometry x="300" y="235" width="40" height="40" as="geometry" />
        </mxCell>
        <mxCell id="dWWnSljMcthPzOE1nn3G-12" value="9" style="ellipse;whiteSpace=wrap;html=1;aspect=fixed;" vertex="1" parent="1">
          <mxGeometry x="355" y="235" width="40" height="40" as="geometry" />
        </mxCell>
        <mxCell id="dWWnSljMcthPzOE1nn3G-15" value="每次都打乱生成" style="whiteSpace=wrap;html=1;shape=partialRectangle;top=0;left=0;bottom=1;right=0;points=[[0,1],[1,1]];fillColor=none;align=center;verticalAlign=bottom;routingCenterY=0.5;snapToPoint=1;recursiveResize=0;autosize=1;treeFolding=1;treeMoving=1;newEdgeStyle={&quot;edgeStyle&quot;:&quot;entityRelationEdgeStyle&quot;,&quot;startArrow&quot;:&quot;none&quot;,&quot;endArrow&quot;:&quot;none&quot;,&quot;segment&quot;:10,&quot;curved&quot;:1};" vertex="1" parent="1">
          <mxGeometry x="450" y="60" width="120" height="20" as="geometry" />
        </mxCell>
        <mxCell id="dWWnSljMcthPzOE1nn3G-16" value="" style="edgeStyle=entityRelationEdgeStyle;startArrow=none;endArrow=none;segment=10;curved=1;" edge="1" target="dWWnSljMcthPzOE1nn3G-15" parent="1">
          <mxGeometry relative="1" as="geometry">
            <mxPoint x="400" y="110" as="sourcePoint" />
          </mxGeometry>
        </mxCell>
      </root>
    </mxGraphModel>
  </diagram>
  <diagram id="Uxhlks-pvICxBCiTPhrM" name="第 2 页">
    <mxGraphModel dx="1426" dy="1184" grid="1" gridSize="10" guides="1" tooltips="1" connect="1" arrows="1" fold="1" page="1" pageScale="1" pageWidth="600" pageHeight="500" math="0" shadow="0">
      <root>
        <mxCell id="lNwvdB6MIyduSpW761Ay-0" />
        <mxCell id="lNwvdB6MIyduSpW761Ay-1" parent="lNwvdB6MIyduSpW761Ay-0" />
        <mxCell id="lNwvdB6MIyduSpW761Ay-3" value="" style="html=1;verticalLabelPosition=bottom;labelBackgroundColor=#ffffff;verticalAlign=top;shadow=0;dashed=0;strokeWidth=1;shape=mxgraph.ios7.misc.iphone;strokeColor=#c0c0c0;" vertex="1" parent="lNwvdB6MIyduSpW761Ay-1">
          <mxGeometry x="160" y="-470" width="260" height="430" as="geometry" />
        </mxCell>
        <mxCell id="lNwvdB6MIyduSpW761Ay-4" value="" style="ellipse;whiteSpace=wrap;html=1;aspect=fixed;fillColor=#647687;strokeColor=#314354;fontColor=#ffffff;" vertex="1" parent="lNwvdB6MIyduSpW761Ay-1">
          <mxGeometry x="195" y="-360" width="50" height="50" as="geometry" />
        </mxCell>
        <mxCell id="lNwvdB6MIyduSpW761Ay-5" value="" style="ellipse;whiteSpace=wrap;html=1;aspect=fixed;fillColor=#647687;strokeColor=#314354;fontColor=#ffffff;" vertex="1" parent="lNwvdB6MIyduSpW761Ay-1">
          <mxGeometry x="265" y="-360" width="50" height="50" as="geometry" />
        </mxCell>
        <mxCell id="lNwvdB6MIyduSpW761Ay-6" value="" style="ellipse;whiteSpace=wrap;html=1;aspect=fixed;fillColor=#647687;strokeColor=#314354;fontColor=#ffffff;" vertex="1" parent="lNwvdB6MIyduSpW761Ay-1">
          <mxGeometry x="335" y="-360" width="50" height="50" as="geometry" />
        </mxCell>
        <mxCell id="lNwvdB6MIyduSpW761Ay-7" value="" style="ellipse;whiteSpace=wrap;html=1;aspect=fixed;fillColor=#647687;strokeColor=#314354;fontColor=#ffffff;" vertex="1" parent="lNwvdB6MIyduSpW761Ay-1">
          <mxGeometry x="195" y="-290" width="50" height="50" as="geometry" />
        </mxCell>
        <mxCell id="lNwvdB6MIyduSpW761Ay-8" value="" style="ellipse;whiteSpace=wrap;html=1;aspect=fixed;fillColor=#647687;strokeColor=#314354;fontColor=#ffffff;" vertex="1" parent="lNwvdB6MIyduSpW761Ay-1">
          <mxGeometry x="265" y="-290" width="50" height="50" as="geometry" />
        </mxCell>
        <mxCell id="lNwvdB6MIyduSpW761Ay-9" value="" style="ellipse;whiteSpace=wrap;html=1;aspect=fixed;fillColor=#647687;strokeColor=#314354;fontColor=#ffffff;" vertex="1" parent="lNwvdB6MIyduSpW761Ay-1">
          <mxGeometry x="335" y="-290" width="50" height="50" as="geometry" />
        </mxCell>
        <mxCell id="lNwvdB6MIyduSpW761Ay-10" value="" style="ellipse;whiteSpace=wrap;html=1;aspect=fixed;fillColor=#647687;strokeColor=#314354;fontColor=#ffffff;" vertex="1" parent="lNwvdB6MIyduSpW761Ay-1">
          <mxGeometry x="195" y="-220" width="50" height="50" as="geometry" />
        </mxCell>
        <mxCell id="lNwvdB6MIyduSpW761Ay-11" value="" style="ellipse;whiteSpace=wrap;html=1;aspect=fixed;fillColor=#647687;strokeColor=#314354;fontColor=#ffffff;" vertex="1" parent="lNwvdB6MIyduSpW761Ay-1">
          <mxGeometry x="265" y="-220" width="50" height="50" as="geometry" />
        </mxCell>
        <mxCell id="lNwvdB6MIyduSpW761Ay-12" value="" style="ellipse;whiteSpace=wrap;html=1;aspect=fixed;fillColor=#647687;strokeColor=#314354;fontColor=#ffffff;" vertex="1" parent="lNwvdB6MIyduSpW761Ay-1">
          <mxGeometry x="335" y="-220" width="50" height="50" as="geometry" />
        </mxCell>
        <mxCell id="lNwvdB6MIyduSpW761Ay-17" value="暗格，不显示真实的数字" style="whiteSpace=wrap;html=1;shape=partialRectangle;top=0;left=0;bottom=1;right=0;points=[[0,1],[1,1]];fillColor=none;align=center;verticalAlign=bottom;routingCenterY=0.5;snapToPoint=1;recursiveResize=0;autosize=1;treeFolding=1;treeMoving=1;newEdgeStyle={&quot;edgeStyle&quot;:&quot;entityRelationEdgeStyle&quot;,&quot;startArrow&quot;:&quot;none&quot;,&quot;endArrow&quot;:&quot;none&quot;,&quot;segment&quot;:10,&quot;curved&quot;:1};" vertex="1" parent="lNwvdB6MIyduSpW761Ay-1">
          <mxGeometry x="430" y="-430" width="160" height="20" as="geometry" />
        </mxCell>
        <mxCell id="lNwvdB6MIyduSpW761Ay-18" value="" style="edgeStyle=entityRelationEdgeStyle;startArrow=none;endArrow=none;segment=10;curved=1;entryX=0.106;entryY=1.2;entryDx=0;entryDy=0;entryPerimeter=0;" edge="1" target="lNwvdB6MIyduSpW761Ay-17" parent="lNwvdB6MIyduSpW761Ay-1" source="lNwvdB6MIyduSpW761Ay-3">
          <mxGeometry relative="1" as="geometry">
            <mxPoint x="420" y="-390" as="sourcePoint" />
          </mxGeometry>
        </mxCell>
      </root>
    </mxGraphModel>
  </diagram>
</mxfile>
